<svg width="36" height="26" viewBox="0 0 36 26" fill="none" xmlns="http://www.w3.org/2000/svg">
<path d="M33 23.0062V20.5062C32.9945 16.747 31.5789 13.1266 29.0329 10.3607C26.4869 7.59488 22.9959 5.88486 19.25 5.56873V3.00623H23V0.506226H13V3.00623H16.75V5.56873C13.0041 5.88486 9.51306 7.59488 6.96708 10.3607C4.42111 13.1266 3.00546 16.747 3 20.5062V23.0062H0.5V25.5062H35.5V23.0062H33ZM18 8.00623C20.8801 8.0102 23.6709 9.00697 25.9018 10.8285C28.1328 12.6501 29.6676 15.1851 30.2475 18.0062H5.7525C6.33244 15.1851 7.86722 12.6501 10.0982 10.8285C12.3291 9.00697 15.1199 8.0102 18 8.00623ZM5.5 20.5062H30.5V23.0062H5.5V20.5062Z" fill="black"/>
</svg>
